{
  "accessors": [
    {
      "bufferView": 2,
      "componentType": 5126,
      "count": 8,
      "max": [
        257.8384094238281,
        500.3923034667969,
        89.56990814208984
      ],
      "min": [
        257.8384094238281,
        478.28179931640625,
        85.19490814208984
      ],
      "type": "VEC3"
    },
    {
      "bufferView": 2,
      "byteOffset": 96,
      "componentType": 5126,
      "count": 8,
      "max": [
        1.0,
        0.0,
        0.0
      ],
      "min": [
        -1.0,
        0.0,
        0.0
      ],
      "type": "VEC3"
    },
    {
      "bufferView": 1,
      "componentType": 5126,
      "count": 8,
      "max": [
        -47.82817840576172,
        12.795700073242188
      ],
      "min": [
        -50.03923034667969,
        12.170700073242188
      ],
      "type": "VEC2"
    },
    {
      "bufferView": 1,
      "byteOffset": 64,
      "componentType": 5126,
      "count": 8,
      "max": [
        -47.82817840576172,
        12.795700073242188
      ],
      "min": [
        -50.03923034667969,
        12.170700073242188
      ],
      "type": "VEC2"
    },
    {
      "bufferView": 0,
      "componentType": 5125,
      "count": 12,
      "type": "SCALAR"
    },
    {
      "bufferView": 2,
      "byteOffset": 192,
      "componentType": 5126,
      "count": 96,
      "max": [
        1142.5096435546875,
        581.3919067382813,
        18.8125
      ],
      "min": [
        362.7868957519531,
        262.2799987792969,
        17.5
      ],
      "type": "VEC3"
    },
    {
      "bufferView": 2,
      "byteOffset": 1344,
      "componentType": 5126,
      "count": 96,
      "max": [
        1.0,
        1.0,
        5.515374038520795e-16
      ],
      "min": [
        -1.0,
        -1.0,
        -5.515374038520795e-16
      ],
      "type": "VEC3"
    },
    {
      "bufferView": 1,
      "byteOffset": 128,
      "componentType": 5126,
      "count": 96,
      "max": [
        138.38059997558594,
        8.958333015441895
      ],
      "min": [
        -138.38059997558594,
        8.333333015441895
      ],
      "type": "VEC2"
    },
    {
      "bufferView": 1,
      "byteOffset": 896,
      "componentType": 5126,
      "count": 96,
      "max": [
        138.38059997558594,
        8.958333015441895
      ],
      "min": [
        -138.38059997558594,
        8.333333015441895
      ],
      "type": "VEC2"
    },
    {
      "bufferView": 0,
      "byteOffset": 48,
      "componentType": 5125,
      "count": 144,
      "type": "SCALAR"
    },
    {
      "bufferView": 2,
      "byteOffset": 2496,
      "componentType": 5126,
      "count": 821,
      "max": [
        1693.7869873046875,
        742.4251708984375,
        16.8125
      ],
      "min": [
        55.93581008911133,
        241.80020141601563,
        0.0
      ],
      "type": "VEC3"
    },
    {
      "bufferView": 2,
      "byteOffset": 12348,
      "componentType": 5126,
      "count": 821,
      "max": [
        1.0,
        1.6526039626127477e-17,
        1.0
      ],
      "min": [
        -2.7705440198702075e-17,
        -3.664412988198457e-33,
        -1.0
      ],
      "type": "VEC3"
    },
    {
      "bufferView": 1,
      "byteOffset": 1664,
      "componentType": 5126,
      "count": 821,
      "max": [
        93.77169799804688,
        27.497230529785156
      ],
      "min": [
        -94.09927368164063,
        0.0
      ],
      "type": "VEC2"
    },
    {
      "bufferView": 0,
      "byteOffset": 624,
      "componentType": 5125,
      "count": 2463,
      "type": "SCALAR"
    },
    {
      "bufferView": 2,
      "byteOffset": 22200,
      "componentType": 5126,
      "count": 720,
      "max": [
        1693.7869873046875,
        742.4251708984375,
        362.4053955078125
      ],
      "min": [
        55.93581008911133,
        241.80020141601563,
        0.0
      ],
      "type": "VEC3"
    },
    {
      "bufferView": 2,
      "byteOffset": 30840,
      "componentType": 5126,
      "count": 720,
      "max": [
        1.0,
        1.0,
        1.0
      ],
      "min": [
        -0.9947894811630249,
        -1.0,
        -3.02436711403007e-31
      ],
      "type": "VEC3"
    },
    {
      "bufferView": 1,
      "byteOffset": 8232,
      "componentType": 5126,
      "count": 720,
      "max": [
        143.1024932861328,
        148.48500061035156
      ],
      "min": [
        -338.75738525390625,
        12.038979530334473
      ],
      "type": "VEC2"
    },
    {
      "bufferView": 0,
      "byteOffset": 10476,
      "componentType": 5125,
      "count": 1980,
      "type": "SCALAR"
    },
    {
      "bufferView": 2,
      "byteOffset": 39480,
      "componentType": 5126,
      "count": 1108,
      "max": [
        1693.7869873046875,
        742.4251708984375,
        74.06990814208984
      ],
      "min": [
        161.89590454101563,
        241.80020141601563,
        16.8125
      ],
      "type": "VEC3"
    },
    {
      "bufferView": 2,
      "byteOffset": 52776,
      "componentType": 5126,
      "count": 1108,
      "max": [
        1.0,
        1.0,
        1.0
      ],
      "min": [
        -1.0,
        -1.0,
        -2.385095489911156e-16
      ],
      "type": "VEC3"
    },
    {
      "bufferView": 1,
      "byteOffset": 13992,
      "componentType": 5126,
      "count": 1108,
      "max": [
        170.102294921875,
        40.41339874267578
      ],
      "min": [
        -14.478839874267578,
        2.6487460136413574
      ],
      "type": "VEC2"
    },
    {
      "bufferView": 0,
      "byteOffset": 18396,
      "componentType": 5125,
      "count": 2346,
      "type": "SCALAR"
    },
    {
      "bufferView": 2,
      "byteOffset": 66072,
      "componentType": 5126,
      "count": 392,
      "max": [
        1693.7869873046875,
        742.4251708984375,
        16.8125
      ],
      "min": [
        487.25830078125,
        241.80020141601563,
        0.0
      ],
      "type": "VEC3"
    },
    {
      "bufferView": 0,
      "byteOffset": 27780,
      "componentType": 5125,
      "count": 612,
      "type": "SCALAR"
    },
    {
      "bufferView": 2,
      "byteOffset": 70776,
      "componentType": 5126,
      "count": 65532,
      "max": [
        1688.179443359375,
        744.0053100585938,
        360.552001953125
      ],
      "min": [
        71.91030883789063,
        241.80020141601563,
        16.8125
      ],
      "type": "VEC3"
    },
    {
      "bufferView": 2,
      "byteOffset": 857160,
      "componentType": 5126,
      "count": 65532,
      "max": [
        1.0,
        1.0,
        1.0
      ],
      "min": [
        -1.0,
        -1.0,
        -1.0
      ],
      "type": "VEC3"
    },
    {
      "bufferView": 0,
      "byteOffset": 30228,
      "componentType": 5125,
      "count": 186540,
      "type": "SCALAR"
    },
    {
      "bufferView": 2,
      "byteOffset": 1643544,
      "componentType": 5126,
      "count": 63334,
      "max": [
        1693.7869873046875,
        744.0053100585938,
        463.1553955078125
      ],
      "min": [
        54.118019104003906,
        241.80020141601563,
        0.0
      ],
      "type": "VEC3"
    },
    {
      "bufferView": 2,
      "byteOffset": 2403552,
      "componentType": 5126,
      "count": 63334,
      "max": [
        1.0,
        1.0,
        1.0
      ],
      "min": [
        -1.0,
        -1.0,
        -1.0
      ],
      "type": "VEC3"
    },
    {
      "bufferView": 0,
      "byteOffset": 776388,
      "componentType": 5125,
      "count": 167946,
      "type": "SCALAR"
    },
    {
      "bufferView": 2,
      "byteOffset": 3163560,
      "componentType": 5126,
      "count": 31772,
      "max": [
        1693.7869873046875,
        744.0053100585938,
        303.2557067871094
      ],
      "min": [
        54.118019104003906,
        241.80020141601563,
        0.0
      ],
      "type": "VEC3"
    },
    {
      "bufferView": 2,
      "byteOffset": 3544824,
      "componentType": 5126,
      "count": 31772,
      "max": [
        1.0,
        1.0,
        1.0
      ],
      "min": [
        -1.0,
        -1.0,
        -1.0
      ],
      "type": "VEC3"
    },
    {
      "bufferView": 1,
      "byteOffset": 22856,
      "componentType": 5126,
      "count": 31772,
      "max": [
        113.4312973022461,
        66.62094116210938
      ],
      "min": [
        -71.14900207519531,
        -65.97467803955078
      ],
      "type": "VEC2"
    },
    {
      "bufferView": 0,
      "byteOffset": 1448172,
      "componentType": 5125,
      "count": 66096,
      "type": "SCALAR"
    },
    {
      "bufferView": 2,
      "byteOffset": 3926088,
      "componentType": 5126,
      "count": 987,
      "max": [
        1614.8214111328125,
        744.0053100585938,
        341.7178955078125
      ],
      "min": [
        73.26629638671875,
        241.80020141601563,
        16.8125
      ],
      "type": "VEC3"
    },
    {
      "bufferView": 2,
      "byteOffset": 3937932,
      "componentType": 5126,
      "count": 987,
      "max": [
        1.0,
        1.0,
        1.0
      ],
      "min": [
        -1.0,
        -1.0,
        -1.0
      ],
      "type": "VEC3"
    },
    {
      "bufferView": 0,
      "byteOffset": 1712556,
      "componentType": 5125,
      "count": 2499,
      "type": "SCALAR"
    },
    {
      "bufferView": 2,
      "byteOffset": 3949776,
      "componentType": 5126,
      "count": 312,
      "max": [
        1141.3580322265625,
        364.47979736328125,
        101.875
      ],
      "min": [
        1125.5460205078125,
        330.97979736328125,
        19.125
      ],
      "type": "VEC3"
    },
    {
      "bufferView": 2,
      "byteOffset": 3953520,
      "componentType": 5126,
      "count": 312,
      "max": [
        1.0,
        1.0,
        1.0
      ],
      "min": [
        -1.0,
        -1.0,
        -1.0
      ],
      "type": "VEC3"
    },
    {
      "bufferView": 1,
      "byteOffset": 277032,
      "componentType": 5126,
      "count": 312,
      "max": [
        20.751970291137695,
        6.6269049644470215
      ],
      "min": [
        -20.751970291137695,
        -4.658629894256592
      ],
      "type": "VEC2"
    },
    {
      "bufferView": 0,
      "byteOffset": 1722552,
      "componentType": 5125,
      "count": 618,
      "type": "SCALAR"
    },
    {
      "bufferView": 2,
      "byteOffset": 3957264,
      "componentType": 5126,
      "count": 628,
      "max": [
        1517.7392578125,
        714.3856811523438,
        44.632408142089844
      ],
      "min": [
        502.1021423339844,
        293.04083251953125,
        19.125
      ],
      "type": "VEC3"
    },
    {
      "bufferView": 2,
      "byteOffset": 3964800,
      "componentType": 5126,
      "count": 628,
      "max": [
        0.0,
        0.0,
        1.0
      ],
      "min": [
        0.0,
        0.0,
        1.0
      ],
      "type": "VEC3"
    },
    {
      "bufferView": 1,
      "byteOffset": 279528,
      "componentType": 5126,
      "count": 628,
      "max": [
        758.86962890625,
        357.19281005859375
      ],
      "min": [
        -570.8779907226563,
        148.23260498046875
      ],
      "type": "VEC2"
    },
    {
      "bufferView": 0,
      "byteOffset": 1725024,
      "componentType": 5125,
      "count": 1830,
      "type": "SCALAR"
    },
    {
      "bufferView": 2,
      "byteOffset": 3972336,
      "componentType": 5126,
      "count": 4,
      "max": [
        1064.0479736328125,
        512.8745727539063,
        16.8125
      ],
      "min": [
        855.1416015625,
        473.8594055175781,
        16.8125
      ],
      "type": "VEC3"
    },
    {
      "bufferView": 0,
      "byteOffset": 1732344,
      "componentType": 5125,
      "count": 4,
      "type": "SCALAR"
    },
    {
      "bufferView": 2,
      "byteOffset": 3972384,
      "componentType": 5126,
      "count": 2399,
      "max": [
        1191.1080322265625,
        742.4251708984375,
        303.2557067871094
      ],
      "min": [
        125.2654037475586,
        241.80020141601563,
        16.8125
      ],
      "type": "VEC3"
    },
    {
      "bufferView": 2,
      "byteOffset": 4001172,
      "componentType": 5126,
      "count": 2399,
      "max": [
        1.0,
        1.0,
        1.0
      ],
      "min": [
        -1.0,
        -1.0,
        -0.5762295126914978
      ],
      "type": "VEC3"
    },
    {
      "bufferView": 1,
      "byteOffset": 284552,
      "componentType": 5126,
      "count": 2399,
      "max": [
        236.82809448242188,
        148.48500061035156
      ],
      "min": [
        -229.47560119628906,
        3.362499952316284
      ],
      "type": "VEC2"
    },
    {
      "bufferView": 0,
      "byteOffset": 1732360,
      "componentType": 5125,
      "count": 4497,
      "type": "SCALAR"
    },
    {
      "bufferView": 2,
      "byteOffset": 4029960,
      "componentType": 5126,
      "count": 25,
      "max": [
        1154.1080322265625,
        730.7647094726563,
        20.8125
      ],
      "min": [
        1112.780029296875,
        533.632080078125,
        20.8125
      ],
      "type": "VEC3"
    },
    {
      "bufferView": 2,
      "byteOffset": 4030260,
      "componentType": 5126,
      "count": 25,
      "max": [
        0.0,
        0.0,
        1.0
      ],
      "min": [
        0.0,
        0.0,
        1.0
      ],
      "type": "VEC3"
    },
    {
      "bufferView": 1,
      "byteOffset": 303744,
      "componentType": 5126,
      "count": 25,
      "max": [
        230.82159423828125,
        146.15289306640625
      ],
      "min": [
        222.55599975585938,
        106.72640228271484
      ],
      "type": "VEC2"
    },
    {
      "bufferView": 0,
      "byteOffset": 1750348,
      "componentType": 5125,
      "count": 72,
      "type": "SCALAR"
    },
    {
      "bufferView": 2,
      "byteOffset": 4030560,
      "componentType": 5126,
      "count": 16,
      "max": [
        1138.342041015625,
        714.998291015625,
        21.6875
      ],
      "min": [
        1128.5460205078125,
        559.1483764648438,
        20.8125
      ],
      "type": "VEC3"
    },
    {
      "bufferView": 0,
      "byteOffset": 1750636,
      "componentType": 5125,
      "count": 48,
      "type": "SCALAR"
    },
    {
      "bufferView": 2,
      "byteOffset": 4030752,
      "componentType": 5126,
      "count": 354,
      "max": [
        1478.2711181640625,
        730.8462524414063,
        429.0928955078125
      ],
      "min": [
        93.13394165039063,
        254.95921325683594,
        20.325780868530273
      ],
      "type": "VEC3"
    },
    {
      "bufferView": 2,
      "byteOffset": 4035000,
      "componentType": 5126,
      "count": 354,
      "max": [
        1.0,
        1.0,
        0.0
      ],
      "min": [
        -1.0,
        -1.0,
        -1.1366610404913314e-16
      ],
      "type": "VEC3"
    },
    {
      "bufferView": 1,
      "byteOffset": 303944,
      "componentType": 5126,
      "count": 354,
      "max": [
        72.64998626708984,
        53.6366081237793
      ],
      "min": [
        -182.80679321289063,
        -1.421084963300432e-14
      ],
      "type": "VEC2"
    },
    {
      "bufferView": 0,
      "byteOffset": 1750828,
      "componentType": 5125,
      "count": 771,
      "type": "SCALAR"
    },
    {
      "bufferView": 2,
      "byteOffset": 4039248,
      "componentType": 5126,
      "count": 8328,
      "max": [
        1621.285400390625,
        744.0053100585938,
        421.2803955078125
      ],
      "min": [
        71.39704895019531,
        241.80020141601563,
        16.8125
      ],
      "type": "VEC3"
    },
    {
      "bufferView": 2,
      "byteOffset": 4139184,
      "componentType": 5126,
      "count": 8328,
      "max": [
        1.0,
        1.0,
        1.0
      ],
      "min": [
        -1.0,
        -1.0,
        -1.0
      ],
      "type": "VEC3"
    },
    {
      "bufferView": 1,
      "byteOffset": 306776,
      "componentType": 5126,
      "count": 8328,
      "max": [
        92.11937713623047,
        25.550249099731445
      ],
      "min": [
        -97.46681213378906,
        -5.048153877258301
      ],
      "type": "VEC2"
    },
    {
      "bufferView": 0,
      "byteOffset": 1753912,
      "componentType": 5125,
      "count": 19257,
      "type": "SCALAR"
    },
    {
      "bufferView": 2,
      "byteOffset": 4239120,
      "componentType": 5126,
      "count": 24719,
      "max": [
        1688.179443359375,
        744.0053100585938,
        463.1553955078125
      ],
      "min": [
        55.93581008911133,
        241.80020141601563,
        16.8125
      ],
      "type": "VEC3"
    },
    {
      "bufferView": 2,
      "byteOffset": 4535748,
      "componentType": 5126,
      "count": 24719,
      "max": [
        1.0,
        1.0,
        1.0
      ],
      "min": [
        -1.0,
        -1.0,
        -1.0
      ],
      "type": "VEC3"
    },
    {
      "bufferView": 1,
      "byteOffset": 373400,
      "componentType": 5126,
      "count": 24719,
      "max": [
        569.8931884765625,
        495.6077880859375
      ],
      "min": [
        -557.5758056640625,
        -279.3653869628906
      ],
      "type": "VEC2"
    },
    {
      "bufferView": 0,
      "byteOffset": 1830940,
      "componentType": 5125,
      "count": 69777,
      "type": "SCALAR"
    },
    {
      "bufferView": 2,
      "byteOffset": 4832376,
      "componentType": 5126,
      "count": 87,
      "max": [
        214.28640747070313,
        742.4251708984375,
        303.2557067871094
      ],
      "min": [
        55.93581008911133,
        241.80020141601563,
        4.5377391351842516e-14
      ],
      "type": "VEC3"
    },
    {
      "bufferView": 2,
      "byteOffset": 4833420,
      "componentType": 5126,
      "count": 87,
      "max": [
        2.384504896188683e-15,
        1.0,
        1.0
      ],
      "min": [
        -1.0,
        -1.0,
        -3.989595988228189e-17
      ],
      "type": "VEC3"
    },
    {
      "bufferView": 0,
      "byteOffset": 2110048,
      "componentType": 5125,
      "count": 213,
      "type": "SCALAR"
    },
    {
      "bufferView": 2,
      "byteOffset": 4834464,
      "componentType": 5126,
      "count": 180,
      "max": [
        231.88670349121094,
        680.875,
        463.1553955078125
      ],
      "min": [
        90.15572357177734,
        291.4453125,
        66.56990814208984
      ],
      "type": "VEC3"
    },
    {
      "bufferView": 2,
      "byteOffset": 4836624,
      "componentType": 5126,
      "count": 180,
      "max": [
        0.9694038033485413,
        0.9087162017822266,
        0.5421786904335022
      ],
      "min": [
        -0.95560622215271,
        -0.9117251038551331,
        -4.520926852023256e-17
      ],
      "type": "VEC3"
    },
    {
      "bufferView": 1,
      "byteOffset": 571152,
      "componentType": 5126,
      "count": 180,
      "max": [
        114.39610290527344,
        130.5738983154297
      ],
      "min": [
        -102.47840118408203,
        13.313980102539063
      ],
      "type": "VEC2"
    },
    {
      "bufferView": 0,
      "byteOffset": 2110900,
      "componentType": 5125,
      "count": 348,
      "type": "SCALAR"
    },
    {
      "bufferView": 2,
      "byteOffset": 4838784,
      "componentType": 5126,
      "count": 2217,
      "max": [
        1611.7801513671875,
        740.9640502929688,
        255.8824005126953
      ],
      "min": [
        55.93581008911133,
        244.84141540527344,
        60.194908142089844
      ],
      "type": "VEC3"
    },
    {
      "bufferView": 2,
      "byteOffset": 4865388,
      "componentType": 5126,
      "count": 2217,
      "max": [
        1.0,
        1.0,
        1.0
      ],
      "min": [
        -1.0,
        -1.0,
        -2.5565968977196945e-16
      ],
      "type": "VEC3"
    },
    {
      "bufferView": 1,
      "byteOffset": 572592,
      "componentType": 5126,
      "count": 2217,
      "max": [
        322.3559875488281,
        145.47019958496094
      ],
      "min": [
        -314.1317138671875,
        12.713979721069336
      ],
      "type": "VEC2"
    },
    {
      "bufferView": 0,
      "byteOffset": 2112292,
      "componentType": 5125,
      "count": 6423,
      "type": "SCALAR"
    },
    {
      "bufferView": 2,
      "byteOffset": 4891992,
      "componentType": 5126,
      "count": 27563,
      "max": [
        1604.822509765625,
        723.7071533203125,
        233.16270446777344
      ],
      "min": [
        140.29840087890625,
        261.7042541503906,
        30.907649993896484
      ],
      "type": "VEC3"
    },
    {
      "bufferView": 2,
      "byteOffset": 5222748,
      "componentType": 5126,
      "count": 27563,
      "max": [
        1.0,
        1.0,
        1.0
      ],
      "min": [
        -1.0,
        -1.0,
        -1.0
      ],
      "type": "VEC3"
    },
    {
      "bufferView": 0,
      "byteOffset": 2137984,
      "componentType": 5125,
      "count": 44769,
      "type": "SCALAR"
    },
    {
      "bufferView": 2,
      "byteOffset": 5553504,
      "componentType": 5126,
      "count": 48,
      "max": [
        140.29840087890625,
        531.57080078125,
        194.16990661621094
      ],
      "min": [
        140.29840087890625,
        447.3158874511719,
        179.7740936279297
      ],
      "type": "VEC3"
    },
    {
      "bufferView": 2,
      "byteOffset": 5554080,
      "componentType": 5126,
      "count": 48,
      "max": [
        1.0,
        0.0,
        0.0
      ],
      "min": [
        1.0,
        0.0,
        0.0
      ],
      "type": "VEC3"
    },
    {
      "bufferView": 1,
      "byteOffset": 590328,
      "componentType": 5126,
      "count": 48,
      "max": [
        37.96934127807617,
        14.023209571838379
      ],
      "min": [
        31.951139450073242,
        12.983530044555664
      ],
      "type": "VEC2"
    },
    {
      "bufferView": 0,
      "byteOffset": 2317060,
      "componentType": 5125,
      "count": 132,
      "type": "SCALAR"
    },
    {
      "bufferView": 2,
      "byteOffset": 5554656,
      "componentType": 5126,
      "count": 2,
      "max": [
        140.29840087890625,
        462.4187927246094,
        221.0478057861328
      ],
      "min": [
        140.29840087890625,
        462.4187927246094,
        93.06990814208984
      ],
      "type": "VEC3"
    },
    {
      "bufferView": 0,
      "byteOffset": 2317588,
      "componentType": 5125,
      "count": 2,
      "type": "SCALAR"
    },
    {
      "bufferView": 2,
      "byteOffset": 5554680,
      "componentType": 5126,
      "count": 360,
      "max": [
        1588.1888427734375,
        721.3980712890625,
        230.85369873046875
      ],
      "min": [
        140.29840087890625,
        264.40740966796875,
        43.944908142089844
      ],
      "type": "VEC3"
    },
    {
      "bufferView": 2,
      "byteOffset": 5559000,
      "componentType": 5126,
      "count": 360,
      "max": [
        1.0,
        1.0,
        0.0
      ],
      "min": [
        -1.0,
        -1.0,
        -1.10456802091105e-15
      ],
      "type": "VEC3"
    },
    {
      "bufferView": 0,
      "byteOffset": 2317596,
      "componentType": 5125,
      "count": 984,
      "type": "SCALAR"
    },
    {
      "bufferView": 2,
      "byteOffset": 5563320,
      "componentType": 5126,
      "count": 14,
      "max": [
        257.8384094238281,
        500.3923034667969,
        89.56990814208984
      ],
      "min": [
        156.6634979248047,
        477.3092041015625,
        85.19490814208984
      ],
      "type": "VEC3"
    },
    {
      "bufferView": 0,
      "byteOffset": 2321532,
      "componentType": 5125,
      "count": 14,
      "type": "SCALAR"
    },
    {
      "bufferView": 2,
      "byteOffset": 5563488,
      "componentType": 5126,
      "count": 1542,
      "max": [
        1588.88720703125,
        658.3984985351563,
        118.94452667236328
      ],
      "min": [
        259.4836120605469,
        327.40704345703125,
        16.8125
      ],
      "type": "VEC3"
    },
    {
      "bufferView": 2,
      "byteOffset": 5581992,
      "componentType": 5126,
      "count": 1542,
      "max": [
        1.0,
        1.0,
        1.0
      ],
      "min": [
        -1.0,
        -1.0,
        -1.0
      ],
      "type": "VEC3"
    },
    {
      "bufferView": 0,
      "byteOffset": 2321588,
      "componentType": 5125,
      "count": 5586,
      "type": "SCALAR"
    },
    {
      "bufferView": 2,
      "byteOffset": 5600496,
      "componentType": 5126,
      "count": 49901,
      "max": [
        1671.587890625,
        727.6202392578125,
        267.34130859375
      ],
      "min": [
        154.1291046142578,
        258.1852722167969,
        16.8125
      ],
      "type": "VEC3"
    },
    {
      "bufferView": 2,
      "byteOffset": 6199308,
      "componentType": 5126,
      "count": 49901,
      "max": [
        1.0,
        1.0,
        1.0
      ],
      "min": [
        -1.0,
        -1.0,
        -8.683359105810407e-15
      ],
      "type": "VEC3"
    },
    {
      "bufferView": 1,
      "byteOffset": 590712,
      "componentType": 5126,
      "count": 49901,
      "max": [
        319.9117126464844,
        152.74429321289063
      ],
      "min": [
        -311.43450927734375,
        -7.179544925689697
      ],
      "type": "VEC2"
    },
    {
      "bufferView": 0,
      "byteOffset": 2343932,
      "componentType": 5125,
      "count": 96282,
      "type": "SCALAR"
    },
    {
      "bufferView": 2,
      "byteOffset": 6798120,
      "componentType": 5126,
      "count": 2312,
      "max": [
        1621.285400390625,
        723.7628173828125,
        119.81990051269531
      ],
      "min": [
        16.792593002319336,
        5.647724151611328,
        28.45410919189453
      ],
      "type": "VEC3"
    },
    {
      "bufferView": 2,
      "byteOffset": 6825864,
      "componentType": 5126,
      "count": 2312,
      "max": [
        1.0,
        1.0,
        1.0
      ],
      "min": [
        -1.0,
        -1.0,
        -1.300633049611949e-13
      ],
      "type": "VEC3"
    },
    {
      "bufferView": 0,
      "byteOffset": 2729060,
      "componentType": 5125,
      "count": 4392,
      "type": "SCALAR"
    },
    {
      "bufferView": 2,
      "byteOffset": 6853608,
      "componentType": 5126,
      "count": 39,
      "max": [
        253.6844940185547,
        490.99810791015625,
        93.64391326904297
      ],
      "min": [
        251.69650268554688,
        487.0220947265625,
        91.33141326904297
      ],
      "type": "VEC3"
    },
    {
      "bufferView": 0,
      "byteOffset": 2746628,
      "componentType": 5125,
      "count": 72,
      "type": "SCALAR"
    },
    {
      "bufferView": 2,
      "byteOffset": 6854076,
      "componentType": 5126,
      "count": 245,
      "max": [
        253.6844940185547,
        490.99810791015625,
        93.64391326904297
      ],
      "min": [
        251.69650268554688,
        487.0220947265625,
        87.53791046142578
      ],
      "type": "VEC3"
    },
    {
      "bufferView": 2,
      "byteOffset": 6857016,
      "componentType": 5126,
      "count": 245,
      "max": [
        1.0,
        0.9914448857307434,
        1.0
      ],
      "min": [
        -1.0,
        -0.9914448857307434,
        -1.6961510100376937e-18
      ],
      "type": "VEC3"
    },
    {
      "bufferView": 1,
      "byteOffset": 989920,
      "componentType": 5126,
      "count": 245,
      "max": [
        82.5461196899414,
        122.74949645996094
      ],
      "min": [
        -137.07749938964844,
        0.671875
      ],
      "type": "VEC2"
    },
    {
      "bufferView": 0,
      "byteOffset": 2746916,
      "componentType": 5125,
      "count": 537,
      "type": "SCALAR"
    },
    {
      "bufferView": 2,
      "byteOffset": 6859956,
      "componentType": 5126,
      "count": 61,
      "max": [
        291.40899658203125,
        575.799072265625,
        91.33141326904297
      ],
      "min": [
        251.69650268554688,
        402.606689453125,
        16.8125
      ],
      "type": "VEC3"
    },
    {
      "bufferView": 0,
      "byteOffset": 2749064,
      "componentType": 5125,
      "count": 168,
      "type": "SCALAR"
    },
    {
      "bufferView": 2,
      "byteOffset": 6860688,
      "componentType": 5126,
      "count": 26694,
      "max": [
        1686.804443359375,
        744.0053100585938,
        368.4670715332031
      ],
      "min": [
        209.9824981689453,
        241.80020141601563,
        16.8125
      ],
      "type": "VEC3"
    },
    {
      "bufferView": 2,
      "byteOffset": 7181016,
      "componentType": 5126,
      "count": 26694,
      "max": [
        1.0,
        1.0,
        1.0
      ],
      "min": [
        -1.0,
        -1.0,
        -1.0
      ],
      "type": "VEC3"
    },
    {
      "bufferView": 1,
      "byteOffset": 991880,
      "componentType": 5126,
      "count": 26694,
      "max": [
        1519.3919677734375,
        321.2524108886719
      ],
      "min": [
        -568.22900390625,
        -142.1331024169922
      ],
      "type": "VEC2"
    },
    {
      "bufferView": 0,
      "byteOffset": 2749736,
      "componentType": 5125,
      "count": 62289,
      "type": "SCALAR"
    },
    {
      "bufferView": 2,
      "byteOffset": 7501344,
      "componentType": 5126,
      "count": 368,
      "max": [
        1676.441162109375,
        669.3596801757813,
        360.552001953125
      ],
      "min": [
        110.69879913330078,
        302.96051025390625,
        18.26844024658203
      ],
      "type": "VEC3"
    },
    {
      "bufferView": 2,
      "byteOffset": 7505760,
      "componentType": 5126,
      "count": 368,
      "max": [
        1.0,
        1.0,
        1.0
      ],
      "min": [
        -0.901580274105072,
        -1.0,
        -1.0
      ],
      "type": "VEC3"
    },
    {
      "bufferView": 1,
      "byteOffset": 1205432,
      "componentType": 5126,
      "count": 368,
      "max": [
        838.2203979492188,
        334.6799011230469
      ],
      "min": [
        -244.34609985351563,
        9.134222030639648
      ],
      "type": "VEC2"
    },
    {
      "bufferView": 0,
      "byteOffset": 2998892,
      "componentType": 5125,
      "count": 564,
      "type": "SCALAR"
    },
    {
      "bufferView": 2,
      "byteOffset": 7510176,
      "componentType": 5126,
      "count": 3304,
      "max": [
        1594.6485595703125,
        729.2738037109375,
        233.5688934326172
      ],
      "min": [
        134.61129760742188,
        255.73219299316406,
        28.266599655151367
      ],
      "type": "VEC3"
    },
    {
      "bufferView": 2,
      "byteOffset": 7549824,
      "componentType": 5126,
      "count": 3304,
      "max": [
        1.0,
        1.0,
        1.0
      ],
      "min": [
        -1.0,
        -1.0,
        -1.0
      ],
      "type": "VEC3"
    },
    {
      "bufferView": 0,
      "byteOffset": 3001148,
      "componentType": 5125,
      "count": 6303,
      "type": "SCALAR"
    },
    {
      "bufferView": 2,
      "byteOffset": 7589472,
      "componentType": 5126,
      "count": 276,
      "max": [
        1594.507568359375,
        728.586669921875,
        233.03590393066406
      ],
      "min": [
        135.2657012939453,
        256.41937255859375,
        28.33246612548828
      ],
      "type": "VEC3"
    },
    {
      "bufferView": 2,
      "byteOffset": 7592784,
      "componentType": 5126,
      "count": 276,
      "max": [
        0.4671669900417328,
        0.4671669900417328,
        -0.8841691017150879
      ],
      "min": [
        -0.4671669900417328,
        -0.4671669900417328,
        -0.8841691017150879
      ],
      "type": "VEC3"
    },
    {
      "bufferView": 0,
      "byteOffset": 3026360,
      "componentType": 5125,
      "count": 414,
      "type": "SCALAR"
    },
    {
      "bufferView": 2,
      "byteOffset": 7596096,
      "componentType": 5126,
      "count": 470,
      "max": [
        1479.6546630859375,
        708.2520751953125,
        365.1112060546875
      ],
      "min": [
        210.0449981689453,
        273.698486328125,
        16.8125
      ],
      "type": "VEC3"
    },
    {
      "bufferView": 2,
      "byteOffset": 7601736,
      "componentType": 5126,
      "count": 470,
      "max": [
        1.0,
        1.0,
        1.0
      ],
      "min": [
        -1.0,
        -1.0,
        -5.508521939024202e-17
      ],
      "type": "VEC3"
    },
    {
      "bufferView": 1,
      "byteOffset": 1208376,
      "componentType": 5126,
      "count": 470,
      "max": [
        138.0402069091797,
        164.73350524902344
      ],
      "min": [
        -117.11820220947266,
        4.261047840118408
      ],
      "type": "VEC2"
    },
    {
      "bufferView": 0,
      "byteOffset": 3028016,
      "componentType": 5125,
      "count": 882,
      "type": "SCALAR"
    },
    {
      "bufferView": 2,
      "byteOffset": 7607376,
      "componentType": 5126,
      "count": 432,
      "max": [
        1135.31298828125,
        688.5742797851563,
        63.13975143432617
      ],
      "min": [
        1132.5870361328125,
        307.1639099121094,
        35.625
      ],
      "type": "VEC3"
    },
    {
      "bufferView": 0,
      "byteOffset": 3031544,
      "componentType": 5125,
      "count": 864,
      "type": "SCALAR"
    },
    {
      "bufferView": 2,
      "byteOffset": 7612560,
      "componentType": 5126,
      "count": 2160,
      "max": [
        1135.68798828125,
        688.9492797851563,
        63.13975143432617
      ],
      "min": [
        1132.2120361328125,
        306.7889099121094,
        19.125
      ],
      "type": "VEC3"
    },
    {
      "bufferView": 2,
      "byteOffset": 7638480,
      "componentType": 5126,
      "count": 2160,
      "max": [
        0.9999607801437378,
        0.9999607801437378,
        0.6880791783332825
      ],
      "min": [
        -0.9999607801437378,
        -0.9999607801437378,
        0.008859192952513695
      ],
      "type": "VEC3"
    },
    {
      "bufferView": 1,
      "byteOffset": 1212136,
      "componentType": 5126,
      "count": 2160,
      "max": [
        665.6524047851563,
        354.9159851074219
      ],
      "min": [
        -665.6524047851563,
        -6.309004783630371
      ],
      "type": "VEC2"
    },
    {
      "bufferView": 0,
      "byteOffset": 3035000,
      "componentType": 5125,
      "count": 3780,
      "type": "SCALAR"
    },
    {
      "bufferView": 2,
      "byteOffset": 7664400,
      "componentType": 5126,
      "count": 4104,
      "max": [
        1538.3948974609375,
        720.416748046875,
        47.361549377441406
      ],
      "min": [
        385.76092529296875,
        261.7042541503906,
        30.907649993896484
      ],
      "type": "VEC3"
    },
    {
      "bufferView": 0,
      "byteOffset": 3050120,
      "componentType": 5125,
      "count": 9640,
      "type": "SCALAR"
    },
    {
      "bufferView": 2,
      "byteOffset": 7713648,
      "componentType": 5126,
      "count": 64254,
      "max": [
        1621.285400390625,
        738.4349365234375,
        371.3619079589844
      ],
      "min": [
        15.684885025024414,
        11.55833625793457,
        -1.421084963300432e-14
      ],
      "type": "VEC3"
    },
    {
      "bufferView": 2,
      "byteOffset": 8484696,
      "componentType": 5126,
      "count": 64254,
      "max": [
        1.0,
        1.0,
        1.0
      ],
      "min": [
        -1.0,
        -1.0,
        -1.0
      ],
      "type": "VEC3"
    },
    {
      "bufferView": 0,
      "byteOffset": 3088680,
      "componentType": 5125,
      "count": 263490,
      "type": "SCALAR"
    },
    {
      "bufferView": 2,
      "byteOffset": 9255744,
      "componentType": 5126,
      "count": 192,
      "max": [
        1478.2711181640625,
        717.1744384765625,
        208.16490173339844
      ],
      "min": [
        789.3931884765625,
        268.6310729980469,
        175.32919311523438
      ],
      "type": "VEC3"
    },
    {
      "bufferView": 2,
      "byteOffset": 9258048,
      "componentType": 5126,
      "count": 192,
      "max": [
        1.0,
        1.1796119636642288e-16,
        0.0
      ],
      "min": [
        -1.0,
        -1.1796119636642288e-16,
        0.0
      ],
      "type": "VEC3"
    },
    {
      "bufferView": 1,
      "byteOffset": 1229416,
      "componentType": 5126,
      "count": 192,
      "max": [
        9.97103500366211,
        7.015842914581299
      ],
      "min": [
        8.954368591308594,
        5.987893104553223
      ],
      "type": "VEC2"
    },
    {
      "bufferView": 0,
      "byteOffset": 4142640,
      "componentType": 5125,
      "count": 528,
      "type": "SCALAR"
    },
    {
      "bufferView": 2,
      "byteOffset": 9260352,
      "componentType": 5126,
      "count": 29342,
      "max": [
        1621.285400390625,
        738.7939453125,
        113.34835052490234
      ],
      "min": [
        16.552852630615234,
        5.629090785980225,
        17.148059844970703
      ],
      "type": "VEC3"
    },
    {
      "bufferView": 2,
      "byteOffset": 9612456,
      "componentType": 5126,
      "count": 29342,
      "max": [
        1.0,
        1.0,
        1.0
      ],
      "min": [
        -1.0,
        -1.0,
        -1.0
      ],
      "type": "VEC3"
    },
    {
      "bufferView": 0,
      "byteOffset": 4144752,
      "componentType": 5125,
      "count": 89400,
      "type": "SCALAR"
    },
    {
      "bufferView": 2,
      "byteOffset": 9964560,
      "componentType": 5126,
      "count": 9180,
      "max": [
        1621.285400390625,
        738.7939453125,
        102.59249877929688
      ],
      "min": [
        273.7961120605469,
        247.01153564453125,
        17.148059844970703
      ],
      "type": "VEC3"
    },
    {
      "bufferView": 0,
      "byteOffset": 4502352,
      "componentType": 5125,
      "count": 18360,
      "type": "SCALAR"
    },
    {
      "bufferView": 2,
      "byteOffset": 10074720,
      "componentType": 5126,
      "count": 32,
      "max": [
        1588.88720703125,
        658.3984985351563,
        118.94452667236328
      ],
      "min": [
        678.777099609375,
        327.40704345703125,
        118.94452667236328
      ],
      "type": "VEC3"
    },
    {
      "bufferView": 0,
      "byteOffset": 4575792,
      "componentType": 5125,
      "count": 32,
      "type": "SCALAR"
    },
    {
      "bufferView": 2,
      "byteOffset": 10075104,
      "componentType": 5126,
      "count": 666,
      "max": [
        1586.5985107421875,
        658.3984985351563,
        107.12396240234375
      ],
      "min": [
        16.374197006225586,
        7.715364456176758,
        3.380091905593872
      ],
      "type": "VEC3"
    },
    {
      "bufferView": 2,
      "byteOffset": 10083096,
      "componentType": 5126,
      "count": 666,
      "max": [
        0.9770684242248535,
        1.0,
        7.883193762077108e-16
      ],
      "min": [
        -0.9770684242248535,
        -1.0,
        -7.883193762077108e-16
      ],
      "type": "VEC3"
    },
    {
      "bufferView": 1,
      "byteOffset": 1230952,
      "componentType": 5126,
      "count": 666,
      "max": [
        1.2025740146636963,
        13.0239896774292
      ],
      "min": [
        -198.03829956054688,
        0.42720091342926025
      ],
      "type": "VEC2"
    },
    {
      "bufferView": 0,
      "byteOffset": 4575920,
      "componentType": 5125,
      "count": 1890,
      "type": "SCALAR"
    },
    {
      "bufferView": 2,
      "byteOffset": 10091088,
      "componentType": 5126,
      "count": 36456,
      "max": [
        1180.364501953125,
        727.6640625,
        40.762969970703125
      ],
      "min": [
        1088.738037109375,
        254.52999877929688,
        16.8125
      ],
      "type": "VEC3"
    },
    {
      "bufferView": 0,
      "byteOffset": 4583480,
      "componentType": 5125,
      "count": 74400,
      "type": "SCALAR"
    },
    {
      "bufferView": 2,
      "byteOffset": 10528560,
      "componentType": 5126,
      "count": 65532,
      "max": [
        1180.364501953125,
        727.6640625,
        40.762969970703125
      ],
      "min": [
        1088.738037109375,
        255.55990600585938,
        16.8125
      ],
      "type": "VEC3"
    },
    {
      "bufferView": 2,
      "byteOffset": 11314944,
      "componentType": 5126,
      "count": 65532,
      "max": [
        0.9351298213005066,
        0.9935359358787537,
        1.347218777508763e-14
      ],
      "min": [
        -0.9351298213005066,
        -0.9935359358787537,
        -1.347218777508763e-14
      ],
      "type": "VEC3"
    },
    {
      "bufferView": 1,
      "byteOffset": 1236280,
      "componentType": 5126,
      "count": 65532,
      "max": [
        527.3626708984375,
        18.381479263305664
      ],
      "min": [
        521.839599609375,
        8.40625
      ],
      "type": "VEC2"
    },
    {
      "bufferView": 0,
      "byteOffset": 4881080,
      "componentType": 5125,
      "count": 191352,
      "type": "SCALAR"
    },
    {
      "bufferView": 2,
      "byteOffset": 12101328,
      "componentType": 5126,
      "count": 8879,
      "max": [
        1180.14208984375,
        646.3030395507813,
        30.502805709838867
      ],
      "min": [
        1091.7952880859375,
        254.52999877929688,
        16.8125
      ],
      "type": "VEC3"
    },
    {
      "bufferView": 2,
      "byteOffset": 12207876,
      "componentType": 5126,
      "count": 8879,
      "max": [
        0.9351298213005066,
        0.9935359358787537,
        8.724914542202703e-15
      ],
      "min": [
        -0.9351298213005066,
        -0.9935359358787537,
        -8.724914542202703e-15
      ],
      "type": "VEC3"
    },
    {
      "bufferView": 1,
      "byteOffset": 1760536,
      "componentType": 5126,
      "count": 8879,
      "max": [
        527.3626708984375,
        18.381479263305664
      ],
      "min": [
        521.839599609375,
        8.40625
      ],
      "type": "VEC2"
    },
    {
      "bufferView": 0,
      "byteOffset": 5646488,
      "componentType": 5125,
      "count": 25896,
      "type": "SCALAR"
    },
    {
      "bufferView": 2,
      "byteOffset": 12314424,
      "componentType": 5126,
      "count": 326,
      "max": [
        20.357816696166992,
        26.74360466003418,
        56.78728103637695
      ],
      "min": [
        15.736766815185547,
        5.538651943206787,
        0.3925175964832306
      ],
      "type": "VEC3"
    },
    {
      "bufferView": 2,
      "byteOffset": 12318336,
      "componentType": 5126,
      "count": 326,
      "max": [
        0.9770684242248535,
        0.21292580664157867,
        8.04422277216315e-15
      ],
      "min": [
        -0.9770684242248535,
        -0.21292580664157867,
        -8.04422277216315e-15
      ],
      "type": "VEC3"
    },
    {
      "bufferView": 1,
      "byteOffset": 1831568,
      "componentType": 5126,
      "count": 326,
      "max": [
        0.5255947113037109,
        2.3661370277404785
      ],
      "min": [
        -0.37868160009384155,
        0.01635489985346794
      ],
      "type": "VEC2"
    },
    {
      "bufferView": 0,
      "byteOffset": 5750072,
      "componentType": 5125,
      "count": 960,
      "type": "SCALAR"
    },
    {
      "bufferView": 2,
      "byteOffset": 12322248,
      "componentType": 5126,
      "count": 122,
      "max": [
        19.379619598388672,
        19.789447784423828,
        66.60083770751953
      ],
      "min": [
        17.25223731994629,
        10.02737808227539,
        55.583438873291016
      ],
      "type": "VEC3"
    },
    {
      "bufferView": 2,
      "byteOffset": 12323712,
      "componentType": 5126,
      "count": 122,
      "max": [
        0.9770684242248535,
        0.21292580664157867,
        2.31904491947545e-15
      ],
      "min": [
        -0.9770684242248535,
        -0.21292580664157867,
        -2.31904491947545e-15
      ],
      "type": "VEC3"
    },
    {
      "bufferView": 0,
      "byteOffset": 5753912,
      "componentType": 5125,
      "count": 354,
      "type": "SCALAR"
    },
    {
      "bufferView": 2,
      "byteOffset": 12325176,
      "componentType": 5126,
      "count": 36,
      "max": [
        19.045988082885742,
        25.59800148010254,
        2.951673984527588
      ],
      "min": [
        15.986419677734375,
        11.55833625793457,
        0.3925175964832306
      ],
      "type": "VEC3"
    },
    {
      "bufferView": 2,
      "byteOffset": 12325608,
      "componentType": 5126,
      "count": 36,
      "max": [
        0.9770684242248535,
        0.21292580664157867,
        -1.1258419945351706e-15
      ],
      "min": [
        0.9770684242248535,
        0.21292580664157867,
        -1.1565020461269345e-15
      ],
      "type": "VEC3"
    },
    {
      "bufferView": 0,
      "byteOffset": 5755328,
      "componentType": 5125,
      "count": 84,
      "type": "SCALAR"
    },
    {
      "bufferView": 2,
      "byteOffset": 12326040,
      "componentType": 5126,
      "count": 42,
      "max": [
        19.018878936767578,
        26.74360466003418,
        4.425450801849365
      ],
      "min": [
        15.736766815185547,
        11.682730674743652,
        0.6931005120277405
      ],
      "type": "VEC3"
    },
    {
      "bufferView": 2,
      "byteOffset": 12326544,
      "componentType": 5126,
      "count": 42,
      "max": [
        0.9770684242248535,
        0.21292580664157867,
        -1.1226620210929412e-15
      ],
      "min": [
        0.9770684242248535,
        0.21292580664157867,
        -1.1665339867168592e-15
      ],
      "type": "VEC3"
    },
    {
      "bufferView": 0,
      "byteOffset": 5755664,
      "componentType": 5125,
      "count": 114,
      "type": "SCALAR"
    },
    {
      "bufferView": 2,
      "byteOffset": 12327048,
      "componentType": 5126,
      "count": 572,
      "max": [
        1621.429443359375,
        744.0053100585938,
        238.2198944091797
      ],
      "min": [
        16.522579193115234,
        5.924156188964844,
        16.8125
      ],
      "type": "VEC3"
    },
    {
      "bufferView": 0,
      "byteOffset": 5756120,
      "componentType": 5125,
      "count": 690,
      "type": "SCALAR"
    },
    {
      "bufferView": 2,
      "byteOffset": 12333912,
      "componentType": 5126,
      "count": 65533,
      "max": [
        1693.7869873046875,
        744.0053100585938,
        463.1553955078125
      ],
      "min": [
        16.129106521606445,
        5.538651943206787,
        -1.421084963300432e-14
      ],
      "type": "VEC3"
    },
    {
      "bufferView": 0,
      "byteOffset": 5758880,
      "componentType": 5125,
      "count": 178064,
      "type": "SCALAR"
    },
    {
      "bufferView": 2,
      "byteOffset": 13120308,
      "componentType": 5126,
      "count": 22421,
      "max": [
        1686.804443359375,
        744.0053100585938,
        433.5303955078125
      ],
      "min": [
        15.684885025024414,
        5.538651943206787,
        -1.421084963300432e-14
      ],
      "type": "VEC3"
    },
    {
      "bufferView": 0,
      "byteOffset": 6471136,
      "componentType": 5125,
      "count": 51700,
      "type": "SCALAR"
    },
    {
      "bufferView": 2,
      "byteOffset": 13389360,
      "componentType": 5126,
      "count": 4139,
      "max": [
        1693.7869873046875,
        744.0053100585938,
        303.2557067871094
      ],
      "min": [
        55.93581008911133,
        241.80020141601563,
        0.0
      ],
      "type": "VEC3"
    },
    {
      "bufferView": 0,
      "byteOffset": 6677936,
      "componentType": 5125,
      "count": 12032,
      "type": "SCALAR"
    },
    {
      "bufferView": 2,
      "byteOffset": 13439028,
      "componentType": 5126,
      "count": 1584,
      "max": [
        1614.8214111328125,
        691.5333251953125,
        421.2803955078125
      ],
      "min": [
        55.93581008911133,
        251.50570678710938,
        16.8125
      ],
      "type": "VEC3"
    },
    {
      "bufferView": 0,
      "byteOffset": 6726064,
      "componentType": 5125,
      "count": 2944,
      "type": "SCALAR"
    },
    {
      "bufferView": 2,
      "byteOffset": 13458036,
      "componentType": 5126,
      "count": 2180,
      "max": [
        1621.429443359375,
        742.4251708984375,
        368.5110168457031
      ],
      "min": [
        209.9824981689453,
        250.06719970703125,
        16.8125
      ],
      "type": "VEC3"
    },
    {
      "bufferView": 0,
      "byteOffset": 6737840,
      "componentType": 5125,
      "count": 4942,
      "type": "SCALAR"
    },
    {
      "bufferView": 2,
      "byteOffset": 13484196,
      "componentType": 5126,
      "count": 270,
      "max": [
        1621.285400390625,
        673.85205078125,
        112.5223159790039
      ],
      "min": [
        646.3789672851563,
        295.1570129394531,
        15.555740356445313
      ],
      "type": "VEC3"
    },
    {
      "bufferView": 0,
      "byteOffset": 6757608,
      "componentType": 5125,
      "count": 346,
      "type": "SCALAR"
    },
    {
      "bufferView": 2,
      "byteOffset": 13487436,
      "componentType": 5126,
      "count": 7777,
      "max": [
        1622.8299560546875,
        744.0053100585938,
        463.1553955078125
      ],
      "min": [
        86.42672729492188,
        241.80020141601563,
        16.8125
      ],
      "type": "VEC3"
    },
    {
      "bufferView": 0,
      "byteOffset": 6758992,
      "componentType": 5125,
      "count": 23456,
      "type": "SCALAR"
    }
  ],
  "asset": {
    "extras": {
      "author": "Pasha (https://sketchfab.com/Pasha.)",
      "license": "CC-BY-4.0 (http://creativecommons.org/licenses/by/4.0/)",
      "source": "https://sketchfab.com/3d-models/street-3ad93e5eaecb4b0aa2209023240bf35a",
      "title": "Street"
    },
    "generator": "Sketchfab-0.13.0",
    "version": "2.0"
  },
  "bufferViews": [
    {
      "buffer": 0,
      "byteLength": 6852816,
      "name": "floatBufferViews",
      "target": 34963
    },
    {
      "buffer": 0,
      "byteLength": 1834176,
      "byteOffset": 6852816,
      "byteStride": 8,
      "name": "floatBufferViews",
      "target": 34962
    },
    {
      "buffer": 0,
      "byteLength": 13580760,
      "byteOffset": 8686992,
      "byteStride": 12,
      "name": "floatBufferViews",
      "target": 34962
    }
  ],
  "buffers": [
    {
      "byteLength": 22267752,
      "uri": "scene.bin"
    }
  ],
  "images": [
    {
      "uri": "textures/Cladding_Stucco_White_1_baseColor.jpeg"
    },
    {
      "uri": "textures/Brick_Pavers_Modular_3_baseColor.jpeg"
    },
    {
      "uri": "textures/Stone_Brushed_Khaki_1_baseColor.jpeg"
    },
    {
      "uri": "textures/Stone_Brushed_Khaki_baseColor.jpeg"
    },
    {
      "uri": "textures/Metal_Corrogated_Shiny_baseColor.jpeg"
    },
    {
      "uri": "textures/Water_Sparkling_baseColor.jpeg"
    },
    {
      "uri": "textures/Brick_Pavers_Modular_2_baseColor.jpeg"
    },
    {
      "uri": "textures/Vegetation_Grass1_baseColor.jpeg"
    },
    {
      "uri": "textures/Translucent_Glass_Block_Dark_baseColor.jpeg"
    },
    {
      "uri": "textures/Cladding_Stucco_White_baseColor.jpeg"
    },
    {
      "uri": "textures/Brick_Tumbled_baseColor.jpeg"
    },
    {
      "uri": "textures/Roofing_Shingles_Asphalt_baseColor.jpeg"
    },
    {
      "uri": "textures/Brick_Pavers_Modular_baseColor.jpeg"
    },
    {
      "uri": "textures/Color_A23_baseColor.jpeg"
    },
    {
      "uri": "textures/Fencing_Picket_Concave_baseColor.png"
    },
    {
      "uri": "textures/Brick_Rough_Dark_baseColor.jpeg"
    },
    {
      "uri": "textures/Metal_Corrogated_Shiny_1_baseColor.jpeg"
    },
    {
      "uri": "textures/Brick_Pavers_Modular_1_baseColor.jpeg"
    },
    {
      "uri": "textures/Metal_Embossed_baseColor.jpeg"
    },
    {
      "uri": "textures/Brick_Pavers_Modular_4_baseColor.jpeg"
    },
    {
      "uri": "textures/Water_Sparkling_1_baseColor.jpeg"
    },
    {
      "uri": "textures/Color_004_1_baseColor.jpeg"
    },
    {
      "uri": "textures/jean_blue_baseColor.jpeg"
    },
    {
      "uri": "textures/Vegetation_HoneyLocust_baseColor.jpeg"
    },
    {
      "uri": "textures/Fencing_Picket_Concave_1_baseColor.png"
    },
    {
      "uri": "textures/Stone_Brushed_Khaki_1_53_baseColor.jpeg"
    }
  ],
  "materials": [
    {
      "name": "Cladding_Stucco_White_1",
      "pbrMetallicRoughness": {
        "baseColorTexture": {
          "index": 0
        },
        "metallicFactor": 0.0,
        "roughnessFactor": 0.6
      }
    },
    {
      "name": "Brick_Pavers_Modular_3",
      "pbrMetallicRoughness": {
        "baseColorTexture": {
          "index": 1
        },
        "metallicFactor": 0.0,
        "roughnessFactor": 0.6
      }
    },
    {
      "name": "Stone_Brushed_Khaki_1",
      "pbrMetallicRoughness": {
        "baseColorTexture": {
          "index": 2
        },
        "metallicFactor": 0.0,
        "roughnessFactor": 0.6
      }
    },
    {
      "name": "edge_color224224224255",
      "pbrMetallicRoughness": {
        "metallicFactor": 0.0,
        "roughnessFactor": 0.6
      }
    },
    {
      "alphaMode": "BLEND",
      "name": "edge_color000255",
      "pbrMetallicRoughness": {
        "baseColorFactor": [
          1.0,
          1.0,
          1.0,
          0.0
        ],
        "metallicFactor": 0.0,
        "roughnessFactor": 0.6
      }
    },
    {
      "name": "edge_color219202179255",
      "pbrMetallicRoughness": {
        "metallicFactor": 0.0,
        "roughnessFactor": 0.6
      }
    },
    {
      "name": "material",
      "pbrMetallicRoughness": {
        "baseColorFactor": [
          0.670588,
          0.690196,
          0.8,
          1.0
        ],
        "metallicFactor": 0.0,
        "roughnessFactor": 0.6
      }
    },
    {
      "name": "Stone_Brushed_Khaki",
      "pbrMetallicRoughness": {
        "baseColorTexture": {
          "index": 3
        },
        "metallicFactor": 0.0,
        "roughnessFactor": 0.6
      }
    },
    {
      "name": "material_0",
      "pbrMetallicRoughness": {
        "metallicFactor": 0.0,
        "roughnessFactor": 0.6
      }
    },
    {
      "name": "Metal_Corrogated_Shiny",
      "pbrMetallicRoughness": {
        "baseColorTexture": {
          "index": 4
        },
        "metallicFactor": 0.0,
        "roughnessFactor": 0.6
      }
    },
    {
      "name": "Water_Sparkling",
      "pbrMetallicRoughness": {
        "baseColorTexture": {
          "index": 5
        },
        "metallicFactor": 0.0,
        "roughnessFactor": 0.6
      }
    },
    {
      "name": "edge_color178163144255",
      "pbrMetallicRoughness": {
        "metallicFactor": 0.0,
        "roughnessFactor": 0.6
      }
    },
    {
      "name": "Brick_Pavers_Modular_2",
      "pbrMetallicRoughness": {
        "baseColorTexture": {
          "index": 6
        },
        "metallicFactor": 0.0,
        "roughnessFactor": 0.6
      }
    },
    {
      "name": "Vegetation_Grass1",
      "pbrMetallicRoughness": {
        "baseColorTexture": {
          "index": 7
        },
        "metallicFactor": 0.0,
        "roughnessFactor": 0.6
      }
    },
    {
      "alphaMode": "BLEND",
      "name": "edge_color196176154255",
      "pbrMetallicRoughness": {
        "baseColorFactor": [
          1.0,
          1.0,
          1.0,
          0.0
        ],
        "metallicFactor": 0.0,
        "roughnessFactor": 0.6
      }
    },
    {
      "alphaMode": "BLEND",
      "name": "Translucent_Glass_Block_Dark",
      "pbrMetallicRoughness": {
        "baseColorFactor": [
          1.0,
          1.0,
          1.0,
          0.89
        ],
        "baseColorTexture": {
          "index": 8
        },
        "metallicFactor": 0.0,
        "roughnessFactor": 0.6
      }
    },
    {
      "alphaMode": "BLEND",
      "name": "edge_color204198183255",
      "pbrMetallicRoughness": {
        "baseColorFactor": [
          1.0,
          1.0,
          1.0,
          0.0
        ],
        "metallicFactor": 0.0,
        "roughnessFactor": 0.6
      }
    },
    {
      "name": "Cladding_Stucco_White",
      "pbrMetallicRoughness": {
        "baseColorTexture": {
          "index": 9
        },
        "metallicFactor": 0.0,
        "roughnessFactor": 0.6
      }
    },
    {
      "alphaMode": "BLEND",
      "name": "edge_color219200185255",
      "pbrMetallicRoughness": {
        "baseColorFactor": [
          1.0,
          1.0,
          1.0,
          0.0
        ],
        "metallicFactor": 0.0,
        "roughnessFactor": 0.6
      }
    },
    {
      "alphaMode": "BLEND",
      "name": "edge_color178163155255",
      "pbrMetallicRoughness": {
        "baseColorFactor": [
          1.0,
          1.0,
          1.0,
          0.0
        ],
        "metallicFactor": 0.0,
        "roughnessFactor": 0.6
      }
    },
    {
      "name": "Brick_Tumbled",
      "pbrMetallicRoughness": {
        "baseColorTexture": {
          "index": 10
        },
        "metallicFactor": 0.0,
        "roughnessFactor": 0.6
      }
    },
    {
      "name": "black",
      "pbrMetallicRoughness": {
        "baseColorFactor": [
          0.0,
          0.0,
          0.0,
          1.0
        ],
        "metallicFactor": 0.0,
        "roughnessFactor": 0.6
      }
    },
    {
      "name": "Roofing_Shingles_Asphalt",
      "pbrMetallicRoughness": {
        "baseColorTexture": {
          "index": 11
        },
        "metallicFactor": 0.0,
        "roughnessFactor": 0.6
      }
    },
    {
      "name": "Brick_Pavers_Modular",
      "pbrMetallicRoughness": {
        "baseColorTexture": {
          "index": 12
        },
        "metallicFactor": 0.0,
        "roughnessFactor": 0.6
      }
    },
    {
      "name": "Color_A01_1",
      "pbrMetallicRoughness": {
        "baseColorFactor": [
          0.666667,
          0.172549,
          0.0627451,
          1.0
        ],
        "metallicFactor": 0.0,
        "roughnessFactor": 0.6
      }
    },
    {
      "name": "Color_A23",
      "pbrMetallicRoughness": {
        "baseColorTexture": {
          "index": 13
        },
        "metallicFactor": 0.0,
        "roughnessFactor": 0.6
      }
    },
    {
      "name": "edge_color249198122255",
      "pbrMetallicRoughness": {
        "metallicFactor": 0.0,
        "roughnessFactor": 0.6
      }
    },
    {
      "name": "Color_004",
      "pbrMetallicRoughness": {
        "baseColorFactor": [
          0.976471,
          0.776471,
          0.478431,
          1.0
        ],
        "metallicFactor": 0.0,
        "roughnessFactor": 0.6
      }
    },
    {
      "name": "edge_color107101101255",
      "pbrMetallicRoughness": {
        "metallicFactor": 0.0,
        "roughnessFactor": 0.6
      }
    },
    {
      "alphaMode": "BLEND",
      "name": "Fencing_Picket_Concave",
      "pbrMetallicRoughness": {
        "baseColorTexture": {
          "index": 14
        },
        "metallicFactor": 0.0,
        "roughnessFactor": 0.6
      }
    },
    {
      "name": "Color_A01",
      "pbrMetallicRoughness": {
        "baseColorFactor": [
          0.858823,
          0.180392,
          0.12549,
          1.0
        ],
        "metallicFactor": 0.0,
        "roughnessFactor": 0.6
      }
    },
    {
      "name": "Brick_Rough_Dark",
      "pbrMetallicRoughness": {
        "baseColorTexture": {
          "index": 15
        },
        "metallicFactor": 0.0,
        "roughnessFactor": 0.6
      }
    },
    {
      "name": "LightGray",
      "pbrMetallicRoughness": {
        "baseColorFactor": [
          0.662745,
          0.627451,
          0.627451,
          1.0
        ],
        "metallicFactor": 0.0,
        "roughnessFactor": 0.6
      }
    },
    {
      "name": "edge_color193193193255",
      "pbrMetallicRoughness": {
        "metallicFactor": 0.0,
        "roughnessFactor": 0.6
      }
    },
    {
      "name": "Metal_Corrogated_Shiny_1",
      "pbrMetallicRoughness": {
        "baseColorTexture": {
          "index": 16
        },
        "metallicFactor": 0.0,
        "roughnessFactor": 0.6
      }
    },
    {
      "name": "edge_color584833255",
      "pbrMetallicRoughness": {
        "metallicFactor": 0.0,
        "roughnessFactor": 0.6
      }
    },
    {
      "name": "Brick_Pavers_Modular_1",
      "pbrMetallicRoughness": {
        "baseColorTexture": {
          "index": 17
        },
        "metallicFactor": 0.0,
        "roughnessFactor": 0.6
      }
    },
    {
      "name": "Metal_Embossed",
      "pbrMetallicRoughness": {
        "baseColorTexture": {
          "index": 18
        },
        "metallicFactor": 0.0,
        "roughnessFactor": 0.6
      }
    },
    {
      "name": "Color_008",
      "pbrMetallicRoughness": {
        "baseColorFactor": [
          0.117647,
          0.117647,
          0.117647,
          1.0
        ],
        "metallicFactor": 0.0,
        "roughnessFactor": 0.6
      }
    },
    {
      "alphaMode": "BLEND",
      "name": "Color_004_2",
      "pbrMetallicRoughness": {
        "baseColorFactor": [
          0.678431,
          0.678431,
          0.678431,
          0.670588
        ],
        "metallicFactor": 0.0,
        "roughnessFactor": 0.6
      }
    },
    {
      "name": "Brick_Pavers_Modular_4",
      "pbrMetallicRoughness": {
        "baseColorTexture": {
          "index": 19
        },
        "metallicFactor": 0.0,
        "roughnessFactor": 0.6
      }
    },
    {
      "name": "edge_color239235255255",
      "pbrMetallicRoughness": {
        "metallicFactor": 0.0,
        "roughnessFactor": 0.6
      }
    },
    {
      "name": "Water_Sparkling_1",
      "pbrMetallicRoughness": {
        "baseColorTexture": {
          "index": 20
        },
        "metallicFactor": 0.0,
        "roughnessFactor": 0.6
      }
    },
    {
      "name": "edge_color1704416255",
      "pbrMetallicRoughness": {
        "metallicFactor": 0.0,
        "roughnessFactor": 0.6
      }
    },
    {
      "name": "Charcoal",
      "pbrMetallicRoughness": {
        "baseColorFactor": [
          0.137255,
          0.137255,
          0.137255,
          1.0
        ],
        "metallicFactor": 0.0,
        "roughnessFactor": 0.6
      }
    },
    {
      "name": "Color_004_1",
      "pbrMetallicRoughness": {
        "baseColorTexture": {
          "index": 21
        },
        "metallicFactor": 0.0,
        "roughnessFactor": 0.6
      }
    },
    {
      "name": "Beige_1",
      "pbrMetallicRoughness": {
        "baseColorFactor": [
          0.717647,
          0.580392,
          0.458823,
          1.0
        ],
        "metallicFactor": 0.0,
        "roughnessFactor": 0.6
      }
    },
    {
      "name": "edge_color183148117255",
      "pbrMetallicRoughness": {
        "metallicFactor": 0.0,
        "roughnessFactor": 0.6
      }
    },
    {
      "name": "edge_color2194632255",
      "pbrMetallicRoughness": {
        "metallicFactor": 0.0,
        "roughnessFactor": 0.6
      }
    },
    {
      "name": "jean_blue",
      "pbrMetallicRoughness": {
        "baseColorTexture": {
          "index": 22
        },
        "metallicFactor": 0.0,
        "roughnessFactor": 0.6
      }
    },
    {
      "alphaMode": "BLEND",
      "name": "edge_color8614525255",
      "pbrMetallicRoughness": {
        "baseColorFactor": [
          1.0,
          1.0,
          1.0,
          0.0
        ],
        "metallicFactor": 0.0,
        "roughnessFactor": 0.6
      }
    },
    {
      "name": "Vegetation_HoneyLocust",
      "pbrMetallicRoughness": {
        "baseColorTexture": {
          "index": 23
        },
        "metallicFactor": 0.0,
        "roughnessFactor": 0.6
      }
    },
    {
      "alphaMode": "BLEND",
      "name": "Fencing_Picket_Concave_1",
      "pbrMetallicRoughness": {
        "baseColorTexture": {
          "index": 24
        },
        "metallicFactor": 0.0,
        "roughnessFactor": 0.6
      }
    },
    {
      "name": "Stone_Brushed_Khaki_1_53",
      "pbrMetallicRoughness": {
        "baseColorTexture": {
          "index": 25
        },
        "metallicFactor": 0.0,
        "roughnessFactor": 0.6
      }
    },
    {
      "name": "Color_B24",
      "pbrMetallicRoughness": {
        "baseColorFactor": [
          0.2,
          0.137255,
          0.117647,
          1.0
        ],
        "metallicFactor": 0.0,
        "roughnessFactor": 0.6
      }
    },
    {
      "name": "0135_DarkGray",
      "pbrMetallicRoughness": {
        "baseColorFactor": [
          0.317647,
          0.317647,
          0.317647,
          1.0
        ],
        "metallicFactor": 0.0,
        "roughnessFactor": 0.6
      }
    },
    {
      "name": "96_96_96",
      "pbrMetallicRoughness": {
        "baseColorFactor": [
          0.376471,
          0.376471,
          0.376471,
          1.0
        ],
        "metallicFactor": 0.0,
        "roughnessFactor": 0.6
      }
    }
  ],
  "meshes": [
    {
      "name": "Material2",
      "primitives": [
        {
          "attributes": {
            "NORMAL": 1,
            "POSITION": 0,
            "TEXCOORD_0": 2,
            "TEXCOORD_1": 3
          },
          "indices": 4,
          "material": 29,
          "mode": 4
        }
      ]
    },
    {
      "name": "Material2",
      "primitives": [
        {
          "attributes": {
            "NORMAL": 6,
            "POSITION": 5,
            "TEXCOORD_0": 7,
            "TEXCOORD_1": 8
          },
          "indices": 9,
          "material": 52,
          "mode": 4
        }
      ]
    },
    {
      "name": "Material3",
      "primitives": [
        {
          "attributes": {
            "NORMAL": 11,
            "POSITION": 10,
            "TEXCOORD_0": 12
          },
          "indices": 13,
          "material": 0,
          "mode": 4
        }
      ]
    },
    {
      "name": "Material3",
      "primitives": [
        {
          "attributes": {
            "NORMAL": 15,
            "POSITION": 14,
            "TEXCOORD_0": 16
          },
          "indices": 17,
          "material": 1,
          "mode": 4
        }
      ]
    },
    {
      "name": "Material3",
      "primitives": [
        {
          "attributes": {
            "NORMAL": 19,
            "POSITION": 18,
            "TEXCOORD_0": 20
          },
          "indices": 21,
          "material": 2,
          "mode": 4
        }
      ]
    },
    {
      "name": "Material6",
      "primitives": [
        {
          "attributes": {
            "POSITION": 22
          },
          "indices": 23,
          "material": 3,
          "mode": 1
        }
      ]
    },
    {
      "name": "Material2",
      "primitives": [
        {
          "attributes": {
            "NORMAL": 25,
            "POSITION": 24
          },
          "indices": 26,
          "material": 6,
          "mode": 4
        }
      ]
    },
    {
      "name": "Material2",
      "primitives": [
        {
          "attributes": {
            "NORMAL": 28,
            "POSITION": 27
          },
          "indices": 29,
          "material": 6,
          "mode": 4
        }
      ]
    },
    {
      "name": "Material3",
      "primitives": [
        {
          "attributes": {
            "NORMAL": 31,
            "POSITION": 30,
            "TEXCOORD_0": 32
          },
          "indices": 33,
          "material": 7,
          "mode": 4
        }
      ]
    },
    {
      "name": "Material3",
      "primitives": [
        {
          "attributes": {
            "NORMAL": 35,
            "POSITION": 34
          },
          "indices": 36,
          "material": 8,
          "mode": 4
        }
      ]
    },
    {
      "name": "Material3",
      "primitives": [
        {
          "attributes": {
            "NORMAL": 38,
            "POSITION": 37,
            "TEXCOORD_0": 39
          },
          "indices": 40,
          "material": 9,
          "mode": 4
        }
      ]
    },
    {
      "name": "Material3",
      "primitives": [
        {
          "attributes": {
            "NORMAL": 42,
            "POSITION": 41,
            "TEXCOORD_0": 43
          },
          "indices": 44,
          "material": 10,
          "mode": 4
        }
      ]
    },
    {
      "name": "Material5",
      "primitives": [
        {
          "attributes": {
            "POSITION": 45
          },
          "indices": 46,
          "material": 11,
          "mode": 1
        }
      ]
    },
    {
      "name": "Material3",
      "primitives": [
        {
          "attributes": {
            "NORMAL": 48,
            "POSITION": 47,
            "TEXCOORD_0": 49
          },
          "indices": 50,
          "material": 12,
          "mode": 4
        }
      ]
    },
    {
      "name": "Material3",
      "primitives": [
        {
          "attributes": {
            "NORMAL": 52,
            "POSITION": 51,
            "TEXCOORD_0": 53
          },
          "indices": 54,
          "material": 13,
          "mode": 4
        }
      ]
    },
    {
      "name": "Material6",
      "primitives": [
        {
          "attributes": {
            "POSITION": 55
          },
          "indices": 56,
          "material": 14,
          "mode": 1
        }
      ]
    },
    {
      "name": "Material3",
      "primitives": [
        {
          "attributes": {
            "NORMAL": 58,
            "POSITION": 57,
            "TEXCOORD_0": 59
          },
          "indices": 60,
          "material": 15,
          "mode": 4
        }
      ]
    },
    {
      "name": "Material3",
      "primitives": [
        {
          "attributes": {
            "NORMAL": 62,
            "POSITION": 61,
            "TEXCOORD_0": 63
          },
          "indices": 64,
          "material": 17,
          "mode": 4
        }
      ]
    },
    {
      "name": "Material3",
      "primitives": [
        {
          "attributes": {
            "NORMAL": 66,
            "POSITION": 65,
            "TEXCOORD_0": 67
          },
          "indices": 68,
          "material": 20,
          "mode": 4
        }
      ]
    },
    {
      "name": "Material3",
      "primitives": [
        {
          "attributes": {
            "NORMAL": 70,
            "POSITION": 69
          },
          "indices": 71,
          "material": 21,
          "mode": 4
        }
      ]
    },
    {
      "name": "Material3",
      "primitives": [
        {
          "attributes": {
            "NORMAL": 73,
            "POSITION": 72,
            "TEXCOORD_0": 74
          },
          "indices": 75,
          "material": 22,
          "mode": 4
        }
      ]
    },
    {
      "name": "Material3",
      "primitives": [
        {
          "attributes": {
            "NORMAL": 77,
            "POSITION": 76,
            "TEXCOORD_0": 78
          },
          "indices": 79,
          "material": 23,
          "mode": 4
        }
      ]
    },
    {
      "name": "Material2",
      "primitives": [
        {
          "attributes": {
            "NORMAL": 81,
            "POSITION": 80
          },
          "indices": 82,
          "material": 24,
          "mode": 4
        }
      ]
    },
    {
      "name": "Material3",
      "primitives": [
        {
          "attributes": {
            "NORMAL": 84,
            "POSITION": 83,
            "TEXCOORD_0": 85
          },
          "indices": 86,
          "material": 25,
          "mode": 4
        }
      ]
    },
    {
      "name": "Material6",
      "primitives": [
        {
          "attributes": {
            "POSITION": 87
          },
          "indices": 88,
          "material": 26,
          "mode": 1
        }
      ]
    },
    {
      "name": "Material3",
      "primitives": [
        {
          "attributes": {
            "NORMAL": 90,
            "POSITION": 89
          },
          "indices": 91,
          "material": 27,
          "mode": 4
        }
      ]
    },
    {
      "name": "Material6",
      "primitives": [
        {
          "attributes": {
            "POSITION": 92
          },
          "indices": 93,
          "material": 28,
          "mode": 1
        }
      ]
    },
    {
      "name": "Material3",
      "primitives": [
        {
          "attributes": {
            "NORMAL": 95,
            "POSITION": 94
          },
          "indices": 96,
          "material": 30,
          "mode": 4
        }
      ]
    },
    {
      "name": "Material3",
      "primitives": [
        {
          "attributes": {
            "NORMAL": 98,
            "POSITION": 97,
            "TEXCOORD_0": 99
          },
          "indices": 100,
          "material": 31,
          "mode": 4
        }
      ]
    },
    {
      "name": "Material3",
      "primitives": [
        {
          "attributes": {
            "NORMAL": 102,
            "POSITION": 101
          },
          "indices": 103,
          "material": 32,
          "mode": 4
        }
      ]
    },
    {
      "name": "Material5",
      "primitives": [
        {
          "attributes": {
            "POSITION": 104
          },
          "indices": 105,
          "material": 33,
          "mode": 1
        }
      ]
    },
    {
      "name": "Material3",
      "primitives": [
        {
          "attributes": {
            "NORMAL": 107,
            "POSITION": 106,
            "TEXCOORD_0": 108
          },
          "indices": 109,
          "material": 34,
          "mode": 4
        }
      ]
    },
    {
      "name": "Material5",
      "primitives": [
        {
          "attributes": {
            "POSITION": 110
          },
          "indices": 111,
          "material": 35,
          "mode": 1
        }
      ]
    },
    {
      "name": "Material3",
      "primitives": [
        {
          "attributes": {
            "NORMAL": 113,
            "POSITION": 112,
            "TEXCOORD_0": 114
          },
          "indices": 115,
          "material": 36,
          "mode": 4
        }
      ]
    },
    {
      "name": "Material3",
      "primitives": [
        {
          "attributes": {
            "NORMAL": 117,
            "POSITION": 116,
            "TEXCOORD_0": 118
          },
          "indices": 119,
          "material": 37,
          "mode": 4
        }
      ]
    },
    {
      "name": "Material3",
      "primitives": [
        {
          "attributes": {
            "NORMAL": 121,
            "POSITION": 120
          },
          "indices": 122,
          "material": 38,
          "mode": 4
        }
      ]
    },
    {
      "name": "Material3",
      "primitives": [
        {
          "attributes": {
            "NORMAL": 124,
            "POSITION": 123
          },
          "indices": 125,
          "material": 39,
          "mode": 4
        }
      ]
    },
    {
      "name": "Material3",
      "primitives": [
        {
          "attributes": {
            "NORMAL": 127,
            "POSITION": 126,
            "TEXCOORD_0": 128
          },
          "indices": 129,
          "material": 40,
          "mode": 4
        }
      ]
    },
    {
      "name": "Material5",
      "primitives": [
        {
          "attributes": {
            "POSITION": 130
          },
          "indices": 131,
          "material": 41,
          "mode": 1
        }
      ]
    },
    {
      "name": "Material3",
      "primitives": [
        {
          "attributes": {
            "NORMAL": 133,
            "POSITION": 132,
            "TEXCOORD_0": 134
          },
          "indices": 135,
          "material": 42,
          "mode": 4
        }
      ]
    },
    {
      "name": "Material4",
      "primitives": [
        {
          "attributes": {
            "POSITION": 136
          },
          "indices": 137,
          "material": 43,
          "mode": 1
        }
      ]
    },
    {
      "name": "Material2",
      "primitives": [
        {
          "attributes": {
            "NORMAL": 139,
            "POSITION": 138
          },
          "indices": 140,
          "material": 44,
          "mode": 4
        }
      ]
    },
    {
      "name": "Material3",
      "primitives": [
        {
          "attributes": {
            "NORMAL": 142,
            "POSITION": 141,
            "TEXCOORD_0": 143
          },
          "indices": 144,
          "material": 45,
          "mode": 4
        }
      ]
    },
    {
      "name": "Material3",
      "primitives": [
        {
          "attributes": {
            "NORMAL": 146,
            "POSITION": 145
          },
          "indices": 147,
          "material": 46,
          "mode": 4
        }
      ]
    },
    {
      "name": "Material3",
      "primitives": [
        {
          "attributes": {
            "POSITION": 148
          },
          "indices": 149,
          "material": 47,
          "mode": 1
        }
      ]
    },
    {
      "name": "Material4",
      "primitives": [
        {
          "attributes": {
            "POSITION": 150
          },
          "indices": 151,
          "material": 48,
          "mode": 1
        }
      ]
    },
    {
      "name": "Material3",
      "primitives": [
        {
          "attributes": {
            "NORMAL": 153,
            "POSITION": 152,
            "TEXCOORD_0": 154
          },
          "indices": 155,
          "material": 49,
          "mode": 4
        }
      ]
    },
    {
      "name": "Material3",
      "primitives": [
        {
          "attributes": {
            "POSITION": 156
          },
          "indices": 157,
          "material": 50,
          "mode": 1
        }
      ]
    },
    {
      "name": "Material2",
      "primitives": [
        {
          "attributes": {
            "NORMAL": 159,
            "POSITION": 158,
            "TEXCOORD_0": 160
          },
          "indices": 161,
          "material": 51,
          "mode": 4
        }
      ]
    },
    {
      "name": "Material2",
      "primitives": [
        {
          "attributes": {
            "NORMAL": 163,
            "POSITION": 162,
            "TEXCOORD_0": 164
          },
          "indices": 165,
          "material": 51,
          "mode": 4
        }
      ]
    },
    {
      "name": "Material2",
      "primitives": [
        {
          "attributes": {
            "NORMAL": 167,
            "POSITION": 166,
            "TEXCOORD_0": 168
          },
          "indices": 169,
          "material": 53,
          "mode": 4
        }
      ]
    },
    {
      "name": "Material2",
      "primitives": [
        {
          "attributes": {
            "NORMAL": 171,
            "POSITION": 170
          },
          "indices": 172,
          "material": 54,
          "mode": 4
        }
      ]
    },
    {
      "name": "Material3",
      "primitives": [
        {
          "attributes": {
            "NORMAL": 174,
            "POSITION": 173
          },
          "indices": 175,
          "material": 55,
          "mode": 4
        }
      ]
    },
    {
      "name": "Material3",
      "primitives": [
        {
          "attributes": {
            "NORMAL": 177,
            "POSITION": 176
          },
          "indices": 178,
          "material": 56,
          "mode": 4
        }
      ]
    },
    {
      "name": "Material2",
      "primitives": [
        {
          "attributes": {
            "POSITION": 179
          },
          "indices": 180,
          "material": 4,
          "mode": 1
        }
      ]
    },
    {
      "name": "Material4",
      "primitives": [
        {
          "attributes": {
            "POSITION": 181
          },
          "indices": 182,
          "material": 4,
          "mode": 1
        }
      ]
    },
    {
      "name": "Material4",
      "primitives": [
        {
          "attributes": {
            "POSITION": 183
          },
          "indices": 184,
          "material": 4,
          "mode": 1
        }
      ]
    },
    {
      "name": "Material2",
      "primitives": [
        {
          "attributes": {
            "POSITION": 185
          },
          "indices": 186,
          "material": 5,
          "mode": 1
        }
      ]
    },
    {
      "name": "Material3",
      "primitives": [
        {
          "attributes": {
            "POSITION": 187
          },
          "indices": 188,
          "material": 16,
          "mode": 1
        }
      ]
    },
    {
      "name": "Material2",
      "primitives": [
        {
          "attributes": {
            "POSITION": 189
          },
          "indices": 190,
          "material": 18,
          "mode": 1
        }
      ]
    },
    {
      "name": "Material2",
      "primitives": [
        {
          "attributes": {
            "POSITION": 191
          },
          "indices": 192,
          "material": 19,
          "mode": 1
        }
      ]
    },
    {
      "name": "Material4",
      "primitives": [
        {
          "attributes": {
            "POSITION": 193
          },
          "indices": 194,
          "material": 19,
          "mode": 1
        }
      ]
    }
  ],
  "nodes": [
    {
      "children": [
        1
      ],
      "matrix": [
        1.0,
        0.0,
        0.0,
        0.0,
        0.0,
        2.220446049250313e-16,
        -1.0,
        0.0,
        0.0,
        1.0,
        2.220446049250313e-16,
        0.0,
        0.0,
        0.0,
        0.0,
        1.0
      ],
      "name": "Sketchfab_model"
    },
    {
      "children": [
        2,
        3,
        4,
        5,
        6,
        7,
        8,
        9,
        10,
        11,
        12,
        13,
        14,
        15,
        16,
        17,
        18,
        19,
        20,
        21,
        22,
        23,
        24,
        25,
        26,
        27,
        28,
        29,
        30,
        31,
        32,
        33,
        34,
        35,
        36,
        37,
        38,
        39,
        40,
        41,
        42,
        43,
        44,
        45,
        46,
        47,
        48,
        49,
        50,
        51,
        52,
        53,
        54,
        55,
        56,
        57,
        58,
        59,
        60,
        61,
        62,
        63,
        64
      ],
      "name": "Collada visual scene group"
    },
    {
      "mesh": 0,
      "name": "Material2"
    },
    {
      "mesh": 1,
      "name": "Material2"
    },
    {
      "mesh": 2,
      "name": "Material3"
    },
    {
      "mesh": 3,
      "name": "Material3"
    },
    {
      "mesh": 4,
      "name": "Material3"
    },
    {
      "mesh": 5,
      "name": "Material6"
    },
    {
      "mesh": 6,
      "name": "Material2"
    },
    {
      "mesh": 7,
      "name": "Material2"
    },
    {
      "mesh": 8,
      "name": "Material3"
    },
    {
      "mesh": 9,
      "name": "Material3"
    },
    {
      "mesh": 10,
      "name": "Material3"
    },
    {
      "mesh": 11,
      "name": "Material3"
    },
    {
      "mesh": 12,
      "name": "Material5"
    },
    {
      "mesh": 13,
      "name": "Material3"
    },
    {
      "mesh": 14,
      "name": "Material3"
    },
    {
      "mesh": 15,
      "name": "Material6"
    },
    {
      "mesh": 16,
      "name": "Material3"
    },
    {
      "mesh": 17,
      "name": "Material3"
    },
    {
      "mesh": 18,
      "name": "Material3"
    },
    {
      "mesh": 19,
      "name": "Material3"
    },
    {
      "mesh": 20,
      "name": "Material3"
    },
    {
      "mesh": 21,
      "name": "Material3"
    },
    {
      "mesh": 22,
      "name": "Material2"
    },
    {
      "mesh": 23,
      "name": "Material3"
    },
    {
      "mesh": 24,
      "name": "Material6"
    },
    {
      "mesh": 25,
      "name": "Material3"
    },
    {
      "mesh": 26,
      "name": "Material6"
    },
    {
      "mesh": 27,
      "name": "Material3"
    },
    {
      "mesh": 28,
      "name": "Material3"
    },
    {
      "mesh": 29,
      "name": "Material3"
    },
    {
      "mesh": 30,
      "name": "Material5"
    },
    {
      "mesh": 31,
      "name": "Material3"
    },
    {
      "mesh": 32,
      "name": "Material5"
    },
    {
      "mesh": 33,
      "name": "Material3"
    },
    {
      "mesh": 34,
      "name": "Material3"
    },
    {
      "mesh": 35,
      "name": "Material3"
    },
    {
      "mesh": 36,
      "name": "Material3"
    },
    {
      "mesh": 37,
      "name": "Material3"
    },
    {
      "mesh": 38,
      "name": "Material5"
    },
    {
      "mesh": 39,
      "name": "Material3"
    },
    {
      "mesh": 40,
      "name": "Material4"
    },
    {
      "mesh": 41,
      "name": "Material2"
    },
    {
      "mesh": 42,
      "name": "Material3"
    },
    {
      "mesh": 43,
      "name": "Material3"
    },
    {
      "mesh": 44,
      "name": "Material3"
    },
    {
      "mesh": 45,
      "name": "Material4"
    },
    {
      "mesh": 46,
      "name": "Material3"
    },
    {
      "mesh": 47,
      "name": "Material3"
    },
    {
      "mesh": 48,
      "name": "Material2"
    },
    {
      "mesh": 49,
      "name": "Material2"
    },
    {
      "mesh": 50,
      "name": "Material2"
    },
    {
      "mesh": 51,
      "name": "Material2"
    },
    {
      "mesh": 52,
      "name": "Material3"
    },
    {
      "mesh": 53,
      "name": "Material3"
    },
    {
      "mesh": 54,
      "name": "Material2"
    },
    {
      "mesh": 55,
      "name": "Material4"
    },
    {
      "mesh": 56,
      "name": "Material4"
    },
    {
      "mesh": 57,
      "name": "Material2"
    },
    {
      "mesh": 58,
      "name": "Material3"
    },
    {
      "mesh": 59,
      "name": "Material2"
    },
    {
      "mesh": 60,
      "name": "Material2"
    },
    {
      "mesh": 61,
      "name": "Material4"
    },
    {
      "children": [
        65
      ],
      "name": "SketchUp"
    },
    {
      "children": [
        66
      ],
      "matrix": [
        -0.2129258,
        0.9770684,
        -6.938894e-18,
        0.0,
        -0.1503283,
        -0.03276001,
        0.9880932,
        0.0,
        0.9654346,
        0.2103906,
        0.1538565,
        0.0,
        1891.232,
        580.0487,
        159.4608,
        1.0
      ],
      "name": "skp_camera_Last_Saved_SketchUp_View"
    },
    {
      "name": "ID1"
    }
  ],
  "samplers": [
    {
      "magFilter": 9729,
      "minFilter": 9987,
      "wrapS": 10497,
      "wrapT": 10497
    }
  ],
  "scene": 0,
  "scenes": [
    {
      "name": "Sketchfab_Scene",
      "nodes": [
        0
      ]
    }
  ],
  "textures": [
    {
      "sampler": 0,
      "source": 0
    },
    {
      "sampler": 0,
      "source": 1
    },
    {
      "sampler": 0,
      "source": 2
    },
    {
      "sampler": 0,
      "source": 3
    },
    {
      "sampler": 0,
      "source": 4
    },
    {
      "sampler": 0,
      "source": 5
    },
    {
      "sampler": 0,
      "source": 6
    },
    {
      "sampler": 0,
      "source": 7
    },
    {
      "sampler": 0,
      "source": 8
    },
    {
      "sampler": 0,
      "source": 9
    },
    {
      "sampler": 0,
      "source": 10
    },
    {
      "sampler": 0,
      "source": 11
    },
    {
      "sampler": 0,
      "source": 12
    },
    {
      "sampler": 0,
      "source": 13
    },
    {
      "sampler": 0,
      "source": 14
    },
    {
      "sampler": 0,
      "source": 15
    },
    {
      "sampler": 0,
      "source": 16
    },
    {
      "sampler": 0,
      "source": 17
    },
    {
      "sampler": 0,
      "source": 18
    },
    {
      "sampler": 0,
      "source": 19
    },
    {
      "sampler": 0,
      "source": 20
    },
    {
      "sampler": 0,
      "source": 21
    },
    {
      "sampler": 0,
      "source": 22
    },
    {
      "sampler": 0,
      "source": 23
    },
    {
      "sampler": 0,
      "source": 24
    },
    {
      "sampler": 0,
      "source": 25
    }
  ]
}
